<svg width="102" height="102" viewBox="0 0 102 102" fill="none" xmlns="http://www.w3.org/2000/svg">
<path d="M93.5 31.5V24.5L96 29L98 33L99.5 38L100.5 43L101 47L96.5 40L93.5 31.5Z" fill="#0DA100" stroke="black"/>
<path d="M59 4L58.5 1.5L64.5 2.5L72.5 5.5L74.5 6.5L72 8L68 9L63.5 6.5L59 4Z" fill="#D9D9D9" stroke="black"/>
<path d="M49.0769 1H49H46.1923L37.5385 2.5L31.7692 4.5L29.3654 5.5L26.4808 7L21.6731 10L16.8654 14L12.5385 18.5L8.21154 24.5L6.76923 27L5.80769 29L4.36539 32.5L3.40385 35L2.44231 38L1 47V53L1.48077 57L1.96154 60L2.44231 63.5L3.40385 67L6.28846 74L12.0577 83L17.3462 88.5L20.2308 91L23.5962 93.5L26.9615 95.5L30.8077 97L34.1731 98.5L37.5385 99.5L41.3846 100.5L45.2308 101H56.7692L60.6154 100.5L64.4615 99.5L67.8269 98.5L71.1923 97L75.0385 95.5L78.4038 93.5L81.7692 91L84.6538 88.5L89.9423 83L95.7115 74L98.5962 67L99.5577 63.5L100.038 60L100.519 57L101 53V47L99.5577 38L98.5962 35L97.6346 32.5L96.1923 29L95.2308 27L93.7885 24.5L89.4615 18.5L85.1346 14L80.3269 10L75.5192 7L72.6346 5.5L70.2308 4.5L64.4615 2.5L55.8077 1H53H52.9231H49.0769Z" fill="#03C3FF"/>
<path d="M49 1H53M52.9231 1H55.8077L64.4615 2.5L70.2308 4.5L72.6346 5.5L75.5192 7L80.3269 10L85.1346 14L89.4615 18.5L93.7885 24.5L95.2308 27L96.1923 29L97.6346 32.5L98.5962 35L99.5577 38L101 47V53L100.519 57L100.038 60L99.5577 63.5L98.5962 67L95.7115 74L89.9423 83L84.6538 88.5L81.7692 91L78.4038 93.5L75.0385 95.5L71.1923 97L67.8269 98.5L64.4615 99.5L60.6154 100.5L56.7692 101H45.2308L41.3846 100.5L37.5385 99.5L34.1731 98.5L30.8077 97L26.9615 95.5L23.5962 93.5L20.2308 91L17.3462 88.5L12.0577 83L6.28846 74L3.40385 67L2.44231 63.5L1.96154 60L1.48077 57L1 53V47L2.44231 38L3.40385 35L4.36539 32.5L5.80769 29L6.76923 27L8.21154 24.5L12.5385 18.5L16.8654 14L21.6731 10L26.4808 7L29.3654 5.5L31.7692 4.5L37.5385 2.5L46.1923 1H49.0769" stroke="black"/>
<path d="M53.7534 95.7879L49.4795 99L51.0822 90.4343L49.4795 86.6869L51.0822 79.7273V73.303L47.8767 71.697L44.137 66.8788L42 60.4545L44.137 52.9596L47.8767 48.1414L53.7534 46L58.0274 48.1414L65.5068 51.8889H68.1781L72.4521 57.7778L77.7945 60.4545L81 62.0606V65.2727L77.7945 69.5556L76.1918 76.5152L70.3151 79.7273L68.1781 83.4747L62.8356 86.6869L58.0274 90.4343L56.4247 92.0404H54.8219L53.7534 95.7879Z" fill="#0DA200" stroke="black"/>
<path d="M24.5 8.5L24.125 11.863L17 19.2603V26.6575L20.2386 34.6712L24.125 39.6027H29.3068L37.7273 42.0685L41.6136 47L48 48L49.5 47.5L51 47L45.5 44.5342L41.6136 39.6027L34.4886 37.137L37.7273 34.6712H34.4886L31.8977 37.137L29.3068 34.6712V29.1233L34.4886 26.6575L41.6136 24.8082L45.5 29.1233H47.4432L45.5 24.8082L50.6818 19.2603L57.8068 17.411H64.9318L66.5 16L67.5 14.5L66 11.5L62 8L58 6L54.5 5.5L54 6V7.5V8.5L53.5 9L51.5 7L48 6.5L47 4.5L50.6818 1H46L37.5 2.5L31.5 4.5L24.5 8.5Z" fill="#0DA100" stroke="black"/>
</svg>
