<svg width="100" height="100" viewBox="0 0 100 100" fill="none" xmlns="http://www.w3.org/2000/svg">
<g clip-path="url(#clip0_13_4)">
<path d="M48.0769 0H48H45.1923L36.5385 1.5L30.7692 3.5L28.3654 4.5L25.4808 6L20.6731 9L15.8654 13L11.5385 17.5L7.21154 23.5L5.76923 26L4.80769 28L3.36539 31.5L2.40385 34L1.44231 37L0 46V52L0.48077 56L0.96154 59L1.44231 62.5L2.40385 66L5.28846 73L11.0577 82L16.3462 87.5L19.2308 90L22.5962 92.5L25.9615 94.5L29.8077 96L33.1731 97.5L36.5385 98.5L40.3846 99.5L44.2308 100H55.7692L59.6154 99.5L63.4615 98.5L66.8269 97.5L70.1923 96L74.0385 94.5L77.4038 92.5L80.7692 90L83.6538 87.5L88.9423 82L94.7115 73L97.5962 66L98.5577 62.5L99.0385 59L99.5192 56L100 52V46L98.5577 37L97.5962 34L96.6346 31.5L95.1923 28L94.2308 26L92.7885 23.5L88.4615 17.5L84.1346 13L79.3269 9L74.5192 6L71.6346 4.5L69.2308 3.5L63.4615 1.5L54.8077 0H52H51.9231H48.0769Z" fill="#DFD2BE"/>
<path d="M48 0H52M51.9231 0H54.8077L63.4615 1.5L69.2308 3.5L71.6346 4.5L74.5192 6L79.3269 9L84.1346 13L88.4615 17.5L92.7885 23.5L94.2308 26L95.1923 28L96.6346 31.5L97.5962 34L98.5577 37L100 46V52L99.5192 56L99.0385 59L98.5577 62.5L97.5962 66L94.7115 73L88.9423 82L83.6538 87.5L80.7692 90L77.4038 92.5L74.0385 94.5L70.1923 96L66.8269 97.5L63.4615 98.5L59.6154 99.5L55.7692 100H44.2308L40.3846 99.5L36.5385 98.5L33.1731 97.5L29.8077 96L25.9615 94.5L22.5962 92.5L19.2308 90L16.3462 87.5L11.0577 82L5.28846 73L2.40385 66L1.44231 62.5L0.96154 59L0.48077 56L0 52V46L1.44231 37L2.40385 34L3.36539 31.5L4.80769 28L5.76923 26L7.21154 23.5L11.5385 17.5L15.8654 13L20.6731 9L25.4808 6L28.3654 4.5L30.7692 3.5L36.5385 1.5L45.1923 0H48.0769" stroke="black"/>
<path d="M84 13L88.5 17.5L73 19L49.5 19.5L26.5 18.5L11.5 17.5L16 13L21 9L25.5 6L31 3.5L36.5 1.5L45 0H55L63.5 1.5L71.5 4.5L74.5 6L79.5 9L84 13Z" fill="#BB9F84" stroke="black"/>
<path d="M6 40.5L1 40L2 37L25.5 39H62L88 38.5L98.5 37L99.5 41L95.5 42L86.5 42.5L72 43.5L52 44L23 43L6 40.5Z" fill="#C54C32"/>
<path d="M30.5 70.5L3.5 66.5L1 56.5L36 58H75.5L99.5 56.5L98.5 63L97.5 66.5C93.6667 67.5 85.8 69.5 85 69.5C84.2 69.5 68.6667 70.8333 61 71.5L30.5 70.5Z" fill="#C54C32"/>
<path d="M6 40.5L1 40L2 37L25.5 39H62L88 38.5L98.5 37L99.5 41L95.5 42L86.5 42.5L72 43.5L52 44L23 43L6 40.5Z" stroke="black"/>
<path d="M30.5 70.5L3.5 66.5L1 56.5L36 58H75.5L99.5 56.5L98.5 63L97.5 66.5C93.6667 67.5 85.8 69.5 85 69.5C84.2 69.5 68.6667 70.8333 61 71.5L30.5 70.5Z" stroke="black"/>
<path d="M70 66.5L73 65.5L76 66L77.5 67.5V70L73.5 72.5H69.5L67 70.5V69.5L70 66.5Z" fill="#FF541E" stroke="black"/>
<path d="M96.5 31L98.5 37L88 38.5L62.5 39H25.5L1.5 37L3.5 31L27.5 32H83L96.5 31Z" fill="white" stroke="black"/>
<path d="M0 46L1 40L23 43L53 44L72 43.5L95.5 42L99 41L100 46V52L99.5 56.5L76.5 58H35.5L0.5 56.5L0 52V46Z" fill="#D9D9D9" stroke="black"/>
<path d="M15.5 75L5.5 72.5L8.5 77.5L16 80L50 82.5L85 80L93 75.5L94.5 73L84.5 76L50 78L15.5 75Z" fill="#A99F91" stroke="black"/>
</g>
<defs>
<clipPath id="clip0_13_4">
<rect width="100" height="100" fill="white"/>
</clipPath>
</defs>
</svg>
