<svg width="100" height="100" viewBox="0 0 100 100" fill="none" xmlns="http://www.w3.org/2000/svg">
<g clip-path="url(#clip0_8_2)">
<path d="M48.0769 0H48H45.1923L36.5385 1.5L30.7692 3.5L28.3654 4.5L25.4808 6L20.6731 9L15.8654 13L11.5385 17.5L7.21154 23.5L5.76923 26L4.80769 28L3.36539 31.5L2.40385 34L1.44231 37L0 46V52L0.48077 56L0.96154 59L1.44231 62.5L2.40385 66L5.28846 73L11.0577 82L16.3462 87.5L19.2308 90L22.5962 92.5L25.9615 94.5L29.8077 96L33.1731 97.5L36.5385 98.5L40.3846 99.5L44.2308 100H55.7692L59.6154 99.5L63.4615 98.5L66.8269 97.5L70.1923 96L74.0385 94.5L77.4038 92.5L80.7692 90L83.6538 87.5L88.9423 82L94.7115 73L97.5962 66L98.5577 62.5L99.0385 59L99.5192 56L100 52V46L98.5577 37L97.5962 34L96.6346 31.5L95.1923 28L94.2308 26L92.7885 23.5L88.4615 17.5L84.1346 13L79.3269 9L74.5192 6L71.6346 4.5L69.2308 3.5L63.4615 1.5L54.8077 0H52H51.9231H48.0769Z" fill="#FF5E03"/>
<path d="M48 0H52M51.9231 0H54.8077L63.4615 1.5L69.2308 3.5L71.6346 4.5L74.5192 6L79.3269 9L84.1346 13L88.4615 17.5L92.7885 23.5L94.2308 26L95.1923 28L96.6346 31.5L97.5962 34L98.5577 37L100 46V52L99.5192 56L99.0385 59L98.5577 62.5L97.5962 66L94.7115 73L88.9423 82L83.6538 87.5L80.7692 90L77.4038 92.5L74.0385 94.5L70.1923 96L66.8269 97.5L63.4615 98.5L59.6154 99.5L55.7692 100H44.2308L40.3846 99.5L36.5385 98.5L33.1731 97.5L29.8077 96L25.9615 94.5L22.5962 92.5L19.2308 90L16.3462 87.5L11.0577 82L5.28846 73L2.40385 66L1.44231 62.5L0.96154 59L0.48077 56L0 52V46L1.44231 37L2.40385 34L3.36539 31.5L4.80769 28L5.76923 26L7.21154 23.5L11.5385 17.5L15.8654 13L20.6731 9L25.4808 6L28.3654 4.5L30.7692 3.5L36.5385 1.5L45.1923 0H48.0769" stroke="black"/>
<path d="M13.5 22L7.5 23.5L11.5 17.5L16 13L20.5 9L25.5 6L28.5 4.5L31 3.5L36.5 1.5L39.5 1L45.5 0H55L63.5 1.5L71.5 4.5L68 5L63.5 6L58.5 7L51.5 8.5L44.5 9.5L37.5 11L31.5 13L25 15.5L19.5 18.5L13.5 22Z" fill="#D9D9D9" stroke="black"/>
<path d="M9.5 58L0.5 56.5L1.5 62.5L3 67.5L5.5 73.5L11 82L17 88L19.5 90L22.5 92.5L26 94.5L29.5 96L33 97.5L56 95L83.5 87.5L89 82L95 72.5L97.5 66.5L98.5 63L86.5 64.5H79C76.8333 65.3333 72.4 67 72 67H64L54 64.5L41 60.5L32 58.5L23 57.5L9.5 58Z" fill="#AC3E00" stroke="black"/>
<path d="M36 95L33 97.5L36.5 98.5L40 99.5L44 100H56L59.5 99.5L67 97.5L74 94.5L77.5 92.5L81 90L83.5 87.5L70 89H66.5L63.5 90.5H61C60.6 90.5 60.1667 90.8333 60 91H57.5L54.5 90L53 92H48L36 95Z" fill="#D9D9D9" stroke="black"/>
<path d="M71 50L65.5 52L61.5 53.5L69.5 54.5H77L82 51L83.5 45L84.5 42H79L80.5 38L74.5 40.5V47L71 50Z" fill="#AC3E00" stroke="black"/>
<path d="M33.5 28L26.5 37.5L28.5 28.5L29.5 26.5H30.5L34.5 22.5L34 20L36 19L37.5 19.5L46.5 20L42.5 20.5L39.5 23L39 26L33.5 32.5V28Z" fill="#AC3E00" stroke="black"/>
</g>
<defs>
<clipPath id="clip0_8_2">
<rect width="100" height="100" fill="white"/>
</clipPath>
</defs>
</svg>
