<svg width="100" height="100" viewBox="0 0 100 100" fill="none" xmlns="http://www.w3.org/2000/svg">
<g clip-path="url(#clip0_29_43)">
<circle cx="50" cy="50" r="50" fill="#D9D9D9"/>
<ellipse cx="86.5" cy="38.5" rx="2.5" ry="4.5" fill="white"/>
<ellipse cx="6" cy="38.5" rx="3" ry="4.5" fill="white"/>
<ellipse cx="79.5" cy="59.5" rx="2.5" ry="4.5" fill="white"/>
<ellipse cx="7.5" cy="56.5" rx="3.5" ry="4.5" fill="white"/>
<ellipse cx="18.5" cy="48.5" rx="3.5" ry="4.5" fill="white"/>
<ellipse cx="12.5" cy="72.5" rx="3.5" ry="4.5" fill="white"/>
<ellipse cx="94" cy="52.5" rx="2" ry="4.5" fill="white"/>
<ellipse cx="18" cy="23.5" rx="2" ry="4.5" fill="white"/>
<circle cx="49" cy="22" r="1" fill="white"/>
<circle cx="62.5" cy="62.5" r="5.5" fill="white"/>
<circle cx="52" cy="42" r="3" fill="white"/>
<circle cx="60" cy="35" r="3" fill="white"/>
<circle cx="32.5" cy="38.5" r="3.5" fill="white"/>
<circle cx="39.5" cy="55.5" r="3.5" fill="white"/>
<circle cx="32.5" cy="70.5" r="2.5" fill="white"/>
<circle cx="56" cy="77" r="4" fill="white"/>
<circle cx="57.5" cy="9.5" r="4.5" fill="white"/>
<path d="M53.5 52.5L58.5 61L61 59.5L53.5 52.5Z" fill="#EEECEC"/>
<path d="M64.5 72L61.5 67.5L64.5 66V72Z" fill="white"/>
<path d="M43.5 67.5L39.5 58.5L41.5 57.5L43.5 67.5Z" fill="white"/>
<path d="M39.5 48L38 52.5H40.5L39.5 48Z" fill="white"/>
<path d="M26.5 76L30.5 71L32.5 72L26.5 76Z" fill="white"/>
<path d="M60.5 86L56.5 81L58 79L60.5 86Z" fill="white"/>
<path d="M45.5 78L52 76.5L53.5 79L45.5 78Z" fill="white"/>
<path d="M61 45.5L55 42L53 44L61 45.5Z" fill="white"/>
<path d="M41.5 34.5L49.5 41.5L50.5 40.5L41.5 34.5Z" fill="white"/>
<path d="M50.5 44H43.5L49 43.0833L50.5 44Z" fill="white"/>
<path d="M55.5 35.5L52.5 39.5L54 41L55.5 35.5Z" fill="white"/>
<path d="M52.5 49L51.5 44.5H52.5V49Z" fill="white"/>
<path d="M60.5 43L59.5 37.5L61.5 37L60.5 43Z" fill="white"/>
<path d="M56.5 28L58 33.5L59.5 32L56.5 28Z" fill="white"/>
<path d="M62 33.5L68 34.5L62 35.5V33.5L61 32.5L64.5 29L62 33.5Z" fill="white"/>
<path d="M71 57L65.5 58.5L67 60L71 57Z" fill="white"/>
<path d="M52.5 62L58 61V62.5L52.5 62Z" fill="white"/>
<path d="M56.5 71L58 64.5L59 65L56.5 71Z" fill="white"/>
<path d="M78 62L71 62.5L77 60.1923L78 62Z" fill="white"/>
<path d="M89.5 60.1923L81 59.5V61L89.5 60.1923Z" fill="white"/>
<path d="M27 32.5L29.5 37.5L30.5 36L27 32.5Z" fill="white"/>
<path d="M24.5 45.5L29.5 39.5L30.5 40.5L24.5 45.5Z" fill="white"/>
<path d="M33.5 26.5L31.5 35.5H34.5L33.5 26.5Z" fill="white"/>
<path d="M40.5 45.5L34.5 40.5L36 38.5L40.5 45.5Z" fill="white"/>
<path d="M34 41.5H30.5L33 53.5L34 41.5Z" fill="white"/>
<path d="M73.5 53C74.5 54.3333 76.7 57.1 77.5 57.5L78.5 56.5L73.5 53Z" fill="white"/>
<path d="M85.5 54L81 56.5V57.5L85.5 54Z" fill="white"/>
<path d="M78.5 39L84.5 37.5V40L78.5 39Z" fill="white"/>
<path d="M87 49L86.5 42.5L87.5 42L87 49Z" fill="white"/>
<path d="M93 34.5C91.1667 35.3333 87.4 37 87 37L88.5 38.5L93 34.5Z" fill="white"/>
<path d="M88 29C87.6 28.6 86.5 32.5 86 34.5L88 35.5C88.1667 33.5 88.4 29.4 88 29Z" fill="white"/>
<path d="M87.5 52L92.5 51V53L87.5 52Z" fill="white"/>
<path d="M95.5 51L99.5 51.5L95.5 53V51Z" fill="white"/>
<path d="M98 57.5L95.5 56V54L98 57.5Z" fill="white"/>
<path d="M62.5 72L58 74L59 75.5L62.5 72Z" fill="white"/>
<path d="M52.5 68.5L53.5 75H55L52.5 68.5Z" fill="white"/>
<path d="M66.5 83.5L59 78L59.5 76.5L66.5 83.5Z" fill="white"/>
<path d="M48.5 83.5L54 80L55 81L48.5 83.5Z" fill="white"/>
<path d="M38 64L33 68.5L34.5 70L38 64Z" fill="white"/>
<path d="M28.5 63L30.5 70H31.5L28.5 63Z" fill="white"/>
<path d="M34.5 71.5L36.5 78L33.7727 73L33.5 72.5L34.5 71.5Z" fill="white"/>
<path d="M36.5 57L26.5 56.5C29.2218 56.0702 34.3569 55.2711 36 55.055L36.5 57Z" fill="white"/>
<path d="M42.5 56.5V54.5L51 53L42.5 56.5Z" fill="white"/>
<path d="M47.5 28L48.5 23H49.5L47.5 28Z" fill="white"/>
<path d="M55.5 17L49 21.5H49.5L55.5 17Z" fill="white"/>
<path d="M55 23.5L50 22L49 22.5L55 23.5Z" fill="white"/>
<path d="M44.5 19.5L48 22H49L44.5 19.5Z" fill="white"/>
<path d="M11 21C12.5 21.3333 15.6 22.1 16 22.5L16.5 21H11Z" fill="white"/>
<path d="M18 32.5L17.5 26.5H19L18 32.5Z" fill="white"/>
<path d="M9.5 27.5C11.3333 26.5 15.3 24.5 16.5 24.5L17 26.5L9.5 27.5Z" fill="white"/>
<path d="M27 28L19.5 24.5V23.5L27 28Z" fill="white"/>
<path d="M18 15L17 19.5H18.5L18 15Z" fill="white"/>
<path d="M19.5 23L19 21.5L30.5 14.5L19.5 23Z" fill="white"/>
<path d="M23 60.5C20.1667 63.1667 14.4 68.5 14 68.5L15 71.5L23 60.5Z" fill="white"/>
<path d="M22 80.5L13.5 76.5L15 74.5L22 80.5Z" fill="white"/>
<path d="M12 61C11.8333 63.3333 11.5 68.1 11.5 68.5H13L12 61Z" fill="white"/>
<path d="M9.79465 70.3527C8.54637 69.2601 5.02932 63.5 5.5 63.5C5.9 63.5 9.66667 67.5 11.5 69.5L9.79465 70.3527L9.5 70.5L10 74L11.5 75L8.5 76.5L10 74L9.5 70.5L9.79465 70.3527Z" fill="white"/>
<path d="M25 74.5C22 74.3333 15.9 73.9 15.5 73.5V72L25 74.5Z" fill="white"/>
<path d="M10.5 65.5L7.5 60.5L9.5 59.5L10.5 65.5Z" fill="white"/>
<path d="M18.5 60L10.5 58.2973L10 56L18.5 60Z" fill="white"/>
<path d="M9.5 43.5L6 53H6.5L8 52.5L9.5 43.5Z" fill="white"/>
<path d="M14 51L9.5 53.5L10 54.5L14 51Z" fill="white"/>
<path d="M4.45833 54.3472L4.5 54.5H4L4.45833 54.3472L3 49L5.5 54L4.45833 54.3472Z" fill="white"/>
<path d="M2.5 60.5L4.5 57L6 58.2973L2.5 60.5Z" fill="white"/>
<path d="M11 44.5L16 46L15.5 47.5L11 44.5Z" fill="white"/>
<path d="M19.5 56L18 52.5L19.5 52V56Z" fill="white"/>
<path d="M28 51.5L21 51V49.5L28 51.5Z" fill="white"/>
<path d="M18.5 44.5L21.5 40.5L21 45.5L18.5 44.5Z" fill="white"/>
<path d="M14 55.055C13.6 55.0991 15.5 52.0367 16.5 50.5L17.7029 51C16.6353 52.3333 14.4 55.011 14 55.055Z" fill="white"/>
<path d="M6 46.5L5.5 42.5L7 41.5L6 46.5Z" fill="white"/>
<path d="M14.5 41.5L8.5 40L9 38L14.5 41.5Z" fill="white"/>
<path d="M8.5 29.5L5.5 34.5L7.5 35L8.5 29.5Z" fill="white"/>
<path d="M2 36H4V37L2 36Z" fill="white"/>
<path d="M1 43.5C1.83333 42.1667 3.5 39.4 3.5 39L4.5 39.5L1 43.5Z" fill="white"/>
<path d="M58 18.5L56.5 13.5L58.5 13L58 18.5Z" fill="white"/>
<path d="M68.5 16L60.5 13L60 11L68.5 16Z" fill="white"/>
<path d="M53.5 1L55.5 6L57 5.5L53.5 1Z" fill="white"/>
<path d="M68 5C65.5 5.5 60.4 6.5 60 6.5L61 8L68 5Z" fill="white"/>
<path d="M54 11L47.5 11.5L53 9.5L54 11L55 12.5L56 13L52 17.5L55 12.5L54 11Z" fill="white"/>
<path d="M50 4L54 8.2239L55 7L50 4Z" fill="white"/>
</g>
<defs>
<clipPath id="clip0_29_43">
<rect width="100" height="100" fill="white"/>
</clipPath>
</defs>
</svg>
