<svg width="100" height="100" viewBox="0 0 100 100" fill="none" xmlns="http://www.w3.org/2000/svg">
<g clip-path="url(#clip0_29_36)">
<path d="M48.0769 0H48H45.1923L36.5385 1.5L30.7692 3.5L28.3654 4.5L25.4808 6L20.6731 9L15.8654 13L11.5385 17.5L7.21154 23.5L5.76923 26L4.80769 28L3.36539 31.5L2.40385 34L1.44231 37L0 46V52L0.48077 56L0.96154 59L1.44231 62.5L2.40385 66L5.28846 73L11.0577 82L16.3462 87.5L19.2308 90L22.5962 92.5L25.9615 94.5L29.8077 96L33.1731 97.5L36.5385 98.5L40.3846 99.5L44.2308 100H55.7692L59.6154 99.5L63.4615 98.5L66.8269 97.5L70.1923 96L74.0385 94.5L77.4038 92.5L80.7692 90L83.6538 87.5L88.9423 82L94.7115 73L97.5962 66L98.5577 62.5L99.0385 59L99.5192 56L100 52V46L98.5577 37L97.5962 34L96.6346 31.5L95.1923 28L94.2308 26L92.7885 23.5L88.4615 17.5L84.1346 13L79.3269 9L74.5192 6L71.6346 4.5L69.2308 3.5L63.4615 1.5L54.8077 0H52H51.9231H48.0769Z" fill="#6E97C7"/>
<path d="M48 0H52M51.9231 0H54.8077L63.4615 1.5L69.2308 3.5L71.6346 4.5L74.5192 6L79.3269 9L84.1346 13L88.4615 17.5L92.7885 23.5L94.2308 26L95.1923 28L96.6346 31.5L97.5962 34L98.5577 37L100 46V52L99.5192 56L99.0385 59L98.5577 62.5L97.5962 66L94.7115 73L88.9423 82L83.6538 87.5L80.7692 90L77.4038 92.5L74.0385 94.5L70.1923 96L66.8269 97.5L63.4615 98.5L59.6154 99.5L55.7692 100H44.2308L40.3846 99.5L36.5385 98.5L33.1731 97.5L29.8077 96L25.9615 94.5L22.5962 92.5L19.2308 90L16.3462 87.5L11.0577 82L5.28846 73L2.40385 66L1.44231 62.5L0.96154 59L0.48077 56L0 52V46L1.44231 37L2.40385 34L3.36539 31.5L4.80769 28L5.76923 26L7.21154 23.5L11.5385 17.5L15.8654 13L20.6731 9L25.4808 6L28.3654 4.5L30.7692 3.5L36.5385 1.5L45.1923 0H48.0769" stroke="black"/>
<path d="M9 53L1 58L0 53V48L0.5 43L1.5 37.5L10.5 32.5L32 27.5L49 25L76 30L98.5 37L100 45L100.5 52L99.5 56.5L99 59.5L94.5 58L83.5 53L62.5 47.5L47.5 46H35L9 53Z" fill="#8EB9D0" stroke="black"/>
<path d="M24.469 87.8205L21 91.2308L26 94.5L32.8938 97.5L40.5 99.5L43.7965 100H56.1858L59.5 99.5L66.5 97.5L74 94.5L78 92L73.531 87.8205L65.6018 83.4359L47.7611 81L32.8938 83.4359L24.469 87.8205Z" fill="#8EB9D0" stroke="black"/>
<path d="M13.5 60L1.5 62.5L1 57.5L9 53L35 46H47.5L62.5 47.5L83.5 53L94.5 58L99 59L98.5 62.5L97 67L77 59L61 55.5L45.5 54.5L35 55.5L13.5 60Z" fill="#8EA9D0" stroke="black"/>
<path d="M4.5 28.5L1.5 37.5L10.5 32.5L32 27.5L49 25L76 30L98.5 37L97.5 33.5L95 28L94 25.5L74.5 20L49 18L26 20.5L7.5 23L4.5 28.5Z" fill="#8EA9D0" stroke="black"/>
<path d="M20.5 85L16.5 87.5L21 91L24.5 88L33 83.5L48 81L65.5 83.5L73.5 88L78 92L80.5 90L76 86L65.5 81L47.5 78.5L31.5 80.5L20.5 85Z" fill="#8EA9D0" stroke="black"/>
</g>
<defs>
<clipPath id="clip0_29_36">
<rect width="100" height="100" fill="white"/>
</clipPath>
</defs>
</svg>
