<svg width="100" height="100" viewBox="0 0 100 100" fill="none" xmlns="http://www.w3.org/2000/svg">
<path d="M50.2308 31H50.2H49.0769L45.6154 31.585L43.3077 32.365L42.3462 32.755L41.1923 33.34L39.2692 34.51L37.3462 36.07L35.6154 37.825L33.8846 40.165L33.3077 41.14L32.9231 41.92L32.3462 43.285L31.9615 44.26L31.5769 45.43L31 48.94V51.28L31.1923 52.84L31.3846 54.01L31.5769 55.375L31.9615 56.74L33.1154 59.47L35.4231 62.98L37.5385 65.125L38.6923 66.1L40.0385 67.075L41.3846 67.855L42.9231 68.44L44.2692 69.025L45.6154 69.415L47.1538 69.805L48.6923 70H53.3077L54.8462 69.805L56.3846 69.415L57.7308 69.025L59.0769 68.44L60.6154 67.855L61.9615 67.075L63.3077 66.1L64.4615 65.125L66.5769 62.98L68.8846 59.47L70.0385 56.74L70.4231 55.375L70.6154 54.01L70.8077 52.84L71 51.28V48.94L70.4231 45.43L70.0385 44.26L69.6538 43.285L69.0769 41.92L68.6923 41.14L68.1154 40.165L66.3846 37.825L64.6538 36.07L62.7308 34.51L60.8077 33.34L59.6538 32.755L58.6923 32.365L56.3846 31.585L52.9231 31H51.8H51.7692H50.2308Z" fill="#A89462"/>
<path d="M50.2 31H51.8M51.7692 31H52.9231L56.3846 31.585L58.6923 32.365L59.6538 32.755L60.8077 33.34L62.7308 34.51L64.6538 36.07L66.3846 37.825L68.1154 40.165L68.6923 41.14L69.0769 41.92L69.6538 43.285L70.0385 44.26L70.4231 45.43L71 48.94V51.28L70.8077 52.84L70.6154 54.01L70.4231 55.375L70.0385 56.74L68.8846 59.47L66.5769 62.98L64.4615 65.125L63.3077 66.1L61.9615 67.075L60.6154 67.855L59.0769 68.44L57.7308 69.025L56.3846 69.415L54.8462 69.805L53.3077 70H48.6923L47.1538 69.805L45.6154 69.415L44.2692 69.025L42.9231 68.44L41.3846 67.855L40.0385 67.075L38.6923 66.1L37.5385 65.125L35.4231 62.98L33.1154 59.47L31.9615 56.74L31.5769 55.375L31.3846 54.01L31.1923 52.84L31 51.28V48.94L31.5769 45.43L31.9615 44.26L32.3462 43.285L32.9231 41.92L33.3077 41.14L33.8846 40.165L35.6154 37.825L37.3462 36.07L39.2692 34.51L41.1923 33.34L42.3462 32.755L43.3077 32.365L45.6154 31.585L49.0769 31H50.2308" stroke="black"/>
<path d="M41.7692 53L31.5128 54L31 51V48.5L31.5128 45.5L40.2308 44.5L51.5128 44L65.359 44.5L70.4872 45.5L71 48V51L70.4872 54L63.8205 53L52.0256 52.5L41.7692 53Z" fill="#D9C183" stroke="black"/>
<path d="M40.7237 44.9333L32 46L34.0526 40.6667L35.0789 39.0667L40.7237 38.5333L52.0132 38L65.8684 39.0667L67.5 39.5L69.5 42.5L71 46L65.8684 44.9333L52.0132 44.4L40.7237 44.9333Z" fill="#CEA87C" stroke="black"/>
<path d="M13.7755 44.4615C13.7755 44.4615 26.1905 43.3077 32.1429 42.7308L51.5306 41L70.9184 42.7308L88.7755 45.0385L97.9592 47.9231L100 50.2308L96.4286 51.9615L84.6939 53.6923L70.4082 54.8462L70.9184 51.3846L81.6327 50.8077L84.6939 49.0769L81.6327 48.5L70.4082 46.7692L51.5306 45.0385L31.6327 46.7692L12.2449 48.5L9.69388 49.0769L11.2245 49.6538L31.1224 51.9615L31.6327 56L17.3469 54.2692L3.06122 51.3846L0 49.6538L3.57143 46.7692C6.80272 46.1923 13.7755 44.4615 13.7755 44.4615Z" fill="#A4936A"/>
<path d="M8.5 49.5L11 50.5L30 53H31.5L31 51.5L19 50L11.5 49L14 48.5L25 47.5L52 45.5L71 47L83 49L81.5 50L71 51L70.5 52.5L82 51.5L86 49L79.5 47L70.5 45.5L52 44L32.5 45L11.5 47.5L8.5 49.5Z" fill="#473F2B"/>
<path d="M31.5 55L4 50.5L1.5 49.5L4.5 47.5L14 45.5L31.5 43.5L51.5 42L71 43.5C76.6667 44.3333 88.1 46 88.5 46C88.9 46 94.3333 47.6667 97 48.5L98.5 50L96.5 51L85 52.5L70.5 54" stroke="black" stroke-width="0.2"/>
<path d="M42.2632 57.5L33 59L32 56L31.5 53L41.2368 52.5L52.5263 52L64.8421 52.5L70.5 53.5L70 56L68.5 59L63.8158 57.5L52.5263 56.5L42.2632 57.5Z" fill="#CEA87C" stroke="black"/>
<path d="M69 59L70.5 55.5L71 51" stroke="black"/>
<path d="M33 59C33 58.6 32.3333 57.3333 32 56.5L31.5 55L31 51.5V50.5" stroke="black"/>
</svg>
