<svg width="100" height="100" viewBox="0 0 100 100" fill="none" xmlns="http://www.w3.org/2000/svg">
<g clip-path="url(#clip0_30_82)">
<path d="M48.0769 0H48H45.1923L36.5385 1.5L30.7692 3.5L28.3654 4.5L25.4808 6L20.6731 9L15.8654 13L11.5385 17.5L7.21154 23.5L5.76923 26L4.80769 28L3.36539 31.5L2.40385 34L1.44231 37L0 46V52L0.48077 56L0.96154 59L1.44231 62.5L2.40385 66L5.28846 73L11.0577 82L16.3462 87.5L19.2308 90L22.5962 92.5L25.9615 94.5L29.8077 96L33.1731 97.5L36.5385 98.5L40.3846 99.5L44.2308 100H55.7692L59.6154 99.5L63.4615 98.5L66.8269 97.5L70.1923 96L74.0385 94.5L77.4038 92.5L80.7692 90L83.6538 87.5L88.9423 82L94.7115 73L97.5962 66L98.5577 62.5L99.0385 59L99.5192 56L100 52V46L98.5577 37L97.5962 34L96.6346 31.5L95.1923 28L94.2308 26L92.7885 23.5L88.4615 17.5L84.1346 13L79.3269 9L74.5192 6L71.6346 4.5L69.2308 3.5L63.4615 1.5L54.8077 0H52H51.9231H48.0769Z" fill="#CD6F00"/>
<path d="M48 0H52M51.9231 0H54.8077L63.4615 1.5L69.2308 3.5L71.6346 4.5L74.5192 6L79.3269 9L84.1346 13L88.4615 17.5L92.7885 23.5L94.2308 26L95.1923 28L96.6346 31.5L97.5962 34L98.5577 37L100 46V52L99.5192 56L99.0385 59L98.5577 62.5L97.5962 66L94.7115 73L88.9423 82L83.6538 87.5L80.7692 90L77.4038 92.5L74.0385 94.5L70.1923 96L66.8269 97.5L63.4615 98.5L59.6154 99.5L55.7692 100H44.2308L40.3846 99.5L36.5385 98.5L33.1731 97.5L29.8077 96L25.9615 94.5L22.5962 92.5L19.2308 90L16.3462 87.5L11.0577 82L5.28846 73L2.40385 66L1.44231 62.5L0.96154 59L0.48077 56L0 52V46L1.44231 37L2.40385 34L3.36539 31.5L4.80769 28L5.76923 26L7.21154 23.5L11.5385 17.5L15.8654 13L20.6731 9L25.4808 6L28.3654 4.5L30.7692 3.5L36.5385 1.5L45.1923 0H48.0769" stroke="black"/>
<path d="M62 60L57 63L49.5 63.5L45.5 65.5L39 64L33 65.5L25.5 63.5L23 62L19 63.5L16 66C15.1667 66.5 13.4 67.5 13 67.5C12.6 67.5 9.16667 68.1667 7.5 68.5L4 70L5 73L11 82L17 83L21.5 85.5L26 82L31.5 77.5L34 78H39L41.5 75.5L46 77.5L51 74L54 76L55.5 73.5L57 69.5L69 66.5L74 63H81.5H92C93.2 63 94.8333 60 95.5 58.5L98 53.5V50.5L94.5 52L93 56H86L78.5 58.5L72.5 52H77.5L76.5 46.5L81.5 43.5L87 36L95.5 30L94 27.5L84.5 29.5L81.5 32C79.8333 33.3333 76.5 38 76.5 38L75 40.5L70 46L62 45L60 40.5L57 36C57 36 55 32 54.5 32C54.1 32 49.6667 30 47.5 29L46.5 32L47.5 33.5L49.5 36L53 38L55.5 40.5L57 45L59 47.5L64 50.5V56L62 60Z" fill="#FFC700" stroke="black"/>
<path d="M12.5 32L2 36.5L2.5 34L7.5 23.5L11.5 17.5L16 13L20.5 9.5L25.5 6L31 3.5L36.5 1.5L45 0H55L63.5 1.5L71.5 4.5L79.5 9L84 13L63.5 19L48 23L32.5 25.5L17.5 30L12.5 32Z" fill="#BA5900" stroke="black"/>
<path d="M24.5 89L19.5 90L22.5 92.5L26 94.5L32.5 93.5L37.5 92L48.5 90.5L62.5 92L74 94.5L77.5 92.5L80.5 90L76 89L62.5 87L48 86.5L33.5 88L24.5 89Z" fill="#CD7B00" stroke="black"/>
<path d="M33 97.5L26.5 94.5L32.5 93.5L37.5 92L48.5 90.5L62 92L74 94.5L67 97.5L59.5 99.5L55.8748 100H44L40.5 99.5L33 97.5Z" fill="#CD4A00" stroke="black"/>
<path d="M1.5 36.5L1 40L3.5 39C3.5 39 10 36.5 13.5 35L22.5 32.5L36.5 29.5L48 27L65 24.5L83 18.5L86.5 15.5L84 13.5L82 11.5C79.5 12 74.3 13 73.5 13C72.7 13 63.5 15.3333 59 16.5L47 20L33 23.5L14 27.5L3.5 32.5L1.5 36.5Z" fill="#CD6200" stroke="black"/>
</g>
<defs>
<clipPath id="clip0_30_82">
<rect width="100" height="100" fill="white"/>
</clipPath>
</defs>
</svg>
